<?xml version="1.0" encoding="UTF-8"?>
<svg id="Layer_1" xmlns="http://www.w3.org/2000/svg" version="1.1" viewBox="0 0 1311.2 489.1">
  <!-- Generator: Adobe Illustrator 30.1.0, SVG Export Plug-In . SVG Version: 2.1.1 Build 136)  -->
  <defs>
    <style>
      .st0 {
        fill: #101c3d;
      }

      .st1 {
        fill: #477827;
      }

      .st2 {
        fill: #3d7123;
      }

      .st3 {
        fill: #162142;
      }
    </style>
  </defs>
  <polygon class="st2" points="188.4 159.5 188.5 159.9 188.5 159.4 188.4 159.5"/>
  <path class="st3" d="M123.8,322.2c2.9,5.2,5.7,10.9,8.3,17.1l11.5-54.1h44.3c12.3,0,22.6-2.1,30.8-6.3,0,0,0,0,0,0h0c.8-.4,1.6-.8,2.3-1.3.8-.4,1.5-.9,2.2-1.4,1.9-1.3,3.7-2.7,5.2-4.2,1.8-1.8,3.3-3.7,4.5-5.7,2.4-4,3.6-8.5,3.6-13.5,0-8.1-2.8-14.7-8.5-20,0,0-.2-.2-.3-.3-.4-.3-.7-.7-1.1-1-1.2-1-2.6-2-4-2.9-1.3-.8-2.6-1.5-4-2.2h0c-3.8-1.8-8.1-3.2-12.8-4.1v-1.6c3.9-.7,7.6-2.1,11.1-4,2-1.1,4-2.5,5.9-4,5.2-4.2,7.8-9.9,7.8-17.1,0-11.8-6.4-20-19.3-24.5-6.4-2.3-14.4-3.4-23.9-3.6-.6,0-1.2,0-1.9,0h-2.9c-3.1,0-6.2.2-9.2.7l-9.5,1.3-34.3,4.9-27,3.6-73.4,9.9,102.2,97.2-7.9,37ZM174,180.6c11.3-1.2,15-1.4,15-1.4,10.6,0,19.2,8.5,19.4,19,.2,10.9-9,19.7-19.9,19.7h-14.5v-37.4ZM173.9,231.5h16.5c12.1,0,21.8,10,21.3,22.1-.4,11.6-10.3,20.5-21.8,20.5h-16v-42.7ZM55.3,196.4l48.5-6.5,43.7-5.9c0,1.3,0,2.2,0,2.2h0s0,82.5,0,82.5c0,0,.7,6.1-3.8,11.8l-88.4-84Z"/>
  <path class="st2" d="M324.4,338.5l-11.4-53.2,102.2-97.2-134.5-18.1-58.4-117-54.9,109.5,14.2-2.1,40.7-81.1,50.7,101.5,116.4,15.7-89.3,84.8,11.3,53.1c-2.4-1.5-4.3-3.2-5.8-4.7-2.1-2.1-3.1-3.8-3.1-3.8l-23.2-42s-.4-.3-.6-.5c10.2-3,24.9-11,25.2-32.7.5-33.2-29.8-33.7-29.8-33.7h-31l-17.8-.2c-2.2,1.8-4.5,3.3-6.9,4.5.8.3,1.5.6,2.2,1l2.7,1.3h0c.6.5,1.2.8,1.8,1.2.5.3,1.1.7,1.6,1.1,1,.7,2,1.4,2.9,2.2.6.5,1.1.9,1.6,1.4,6.6,6.2,10,14.1,10,23.5s-2.4,14.4-7.2,20.1c-.7.8-1.5,1.7-2.3,2.4-1.7,1.7-3.6,3.2-5.8,4.7-.8.5-1.6,1-2.5,1.6-.9.5-1.7,1-2.6,1.4l-1,.5h0c-.4.2-.8.4-1.2.5v13.2h0s0,43.4,0,43.4v5.5l-35.6,21.5-8.8,5.3c3.6-16.3,16.3-41.5,16.3-41.5-18.5,11.3-32.5,47.4-32.5,47.4-3.6-16.3,11.3-56,11.3-56-23.5,17.2-31.2,63.7-31.2,63.7-2.2-13-5.3-24.5-9-34.8-2.4-6.9-5.1-13.2-8-18.9-19.1-38.7-44.8-52.4-45.9-53,24.8,21.7,35.2,66.9,38.7,86.3,1,5.4,1.4,8.8,1.4,9.2-.8-1.7-1.5-3.4-2.3-5.1-18.3-37.9-47.4-49.1-47.4-49.1,39.4,43.1,40.1,80.2,36.7,98.9l-1.1,5.2c-1.3,5.1-2.6,7.9-2.6,7.9l14.9-10.2,66.9-40.3,41.5-25.1,2.1,1.3,21.9,13v-7.1s0,0,0,0v-78.6h10l20.7,38.1c9.4,17.8,21.7,21.6,32,20.8,1.6-.1,3.2-.4,4.6-.7l.7,3.2.3,1.6,12.4,57.8-73.1-43.8v13.7l90.3,54.1-19.4-90.7-.5-2.2ZM257,274.3l-10.5.2v-45.9h10.5c12.6,0,22.9,10.2,22.9,22.9s-10.2,22.9-22.9,22.9Z"/>
  <path class="st0" d="M578.1,157.2c-28.9,0-52.3,22.5-52.3,50.3s23.4,50.3,52.3,50.3,52.3-22.5,52.3-50.3-23.4-50.3-52.3-50.3ZM578.7,246.1c-16.3,0-29.5-17.1-29.5-38.1s13.2-38.1,29.5-38.1,29.5,17.1,29.5,38.1-13.2,38.1-29.5,38.1Z"/>
  <path class="st0" d="M482.7,160.4h0c-1.8,1.4-2.8,3.5-2.8,5.8v76.9h27.2c1,0,2.1-.2,3-.6l10-4.5v18.2h-69.5l2.6-2.9c1.2-1.3,1.9-3.1,1.9-4.9v-79.9c0-1.9-.7-3.7-2-5l-2.8-3h32.3Z"/>
  <path class="st0" d="M671.7,255.6l1,1.5h-25.6l1-1.6c2.1-3.2,3.3-7,3.3-10.9v-71c0-4-1.2-7.9-3.5-11.2l-1.1-1.6h27.2l53,61.7v-50.4c0-3.9-1.2-7.7-3.3-11l-.4-.6h25.1,0c-3.2,3.6-4.9,8.2-4.9,13v83.1h-16.1l-58.6-67s-.8,38.6-.8,54.4c0,4.1,1.3,8.2,3.7,11.5Z"/>
  <path class="st0" d="M838.7,237.5v19.1h-73.2l3.1-4.1c1.1-1.5,1.7-3.3,1.7-5.1v-77.3c0-1.8-.5-3.5-1.6-4.9l-2.9-4.1h67.8v16.8l-3.4-3.2c-1.6-1.5-3.7-2.3-5.9-2.3h-29v27.3h24.3c1.8,0,3.5-.6,5-1.6l2.6-1.8v19.3l-2.4-2.4c-1.6-1.6-3.8-2.5-6.1-2.5h-23.5v33.4h28.7c1.4,0,2.7-.3,3.9-.9l10.8-5.5Z"/>
  <path class="st0" d="M999.4,256.7h-32l.5-.7c2.3-2.7,3.6-6.2,3.6-9.8v-74.6h-16.5c-2.2,0-4.4.5-6.4,1.4l-8.4,3.9v-17.2h86.7v18l-2.4-1.7c-2.6-1.8-5.6-2.7-8.7-2.7h-19.7v73.2c0,2.5.6,5,1.8,7.2l1.5,2.8Z"/>
  <path class="st0" d="M1097.4,256.3h30.6l-39.5-96h-30.6c1.4,2.9,1.5,6.2.1,9.2l-38.5,87.2h26.4l-.6-1.5c-1.2-2.8-1.2-6.1,0-8.9l7.7-17.1h37.5l6.9,19.6c.7,2,.8,4.2.3,6.2l-.3,1.2ZM1057.4,215.3l14.7-35.8,13.3,35.8h-28Z"/>
  <path class="st0" d="M1197.4,212.3s19.4-2.4,19.6-27.5c.2-25-26.3-24.3-26.3-24.3h-53.2l1.6,3.5c1.1,2.3,1.6,4.9,1.6,7.4v73.5c0,4.1-1.4,8-3.9,11.2h0c0,0,31,0,31,0l-1-1.9c-1.5-2.7-2.2-5.7-2.2-8.7v-29.6h10.5l26,40.3h28.5l-32.2-44ZM1164.6,204.6v-32s29.1-6.1,28.7,15.1c-.3,21.2-28.7,17-28.7,17Z"/>
  <path class="st0" d="M922.6,160.2v20.3s-15.2-13.5-31.7-8.6c-16.6,4.9-13.8,18.7,3,23.6,16.5,4.9,38.8,17,34.6,38.7s-38.1,31.7-72.8,19.1v-21s20.1,16.1,35.3,12.6c15.2-3.5,18.7-14.5,10.3-20.8-8.4-6.3-46.7-15.4-44.6-39.2,2.1-23.8,25.4-33.9,66.1-24.7Z"/>
  <g>
    <polygon class="st0" points="457.5 332.7 452.2 332.7 452.2 367.8 474.5 367.8 474.5 363 457.5 363 457.5 332.7"/>
    <path class="st0" d="M499.7,364.2c-.8,0-1.3,0-1.4-.2-.1-.2-.2-.5-.2-.9v-14.5c0-2.5-1-4.4-2.9-5.6-1.9-1.2-4.3-1.7-7.2-1.7s-4.8.6-6.8,1.9c-2,1.3-3,3.6-3.1,6.8v.4s4.5,0,4.5,0v-.3c.2-1.2.5-2.2,1-2.8.8-1.1,2.3-1.7,4.3-1.7s3.2.3,4.1.9c.9.6,1.3,1.5,1.3,2.8s0,1.1-.2,1.5c-.3.6-.8.9-1.6,1l-6.6.8c-2.4.3-4.3,1.1-5.8,2.5-1.5,1.3-2.3,3.3-2.3,5.7s.8,4.1,2.3,5.6c1.5,1.5,3.5,2.2,5.9,2.2s3.8-.4,5.4-1.3c1.3-.7,2.4-1.5,3.3-2.4.1.7.4,1.3.6,1.7.7,1.1,1.9,1.7,3.4,1.7s1.1,0,1.4,0c.4,0,.9-.2,1.5-.4h.3v-3.9h-.4c-.3.1-.5.2-.7.2ZM493.2,355.3v2.8c0,2.5-1.1,4.2-3.3,5.3-1.3.7-2.7,1-4.1,1s-2.1-.3-2.9-1c-.8-.6-1.2-1.5-1.2-2.6s.6-2.5,1.7-3.2c.7-.4,1.8-.7,3.3-.9l2.5-.3c.8,0,1.6-.3,2.4-.5.6-.2,1.1-.3,1.5-.6Z"/>
    <path class="st0" d="M516.5,341.4c-1.6,0-3.2.3-4.5,1-1.1.5-2.2,1.4-3.2,2.5v-3h-4.6v25.8h4.9v-13.5c0-1.6.1-2.9.3-3.7.2-.8.6-1.6,1.3-2.4.8-1,1.8-1.6,2.8-2,.6-.2,1.4-.3,2.3-.3,1.8,0,3,.7,3.7,2.1.4.9.6,2.1.6,3.6v16.2h4.9v-16.5c0-2.6-.4-4.6-1-6-1.3-2.6-3.8-3.9-7.4-3.9Z"/>
    <path class="st0" d="M546.4,344.6c-.7-.8-1.4-1.4-2-1.8-1.3-.8-3-1.3-4.9-1.3-3.5,0-6.2,1.4-8.1,4.2-1.9,2.7-2.8,6-2.8,9.7s1,7.2,3.1,9.6c2.1,2.4,4.5,3.7,7.4,3.7s3.3-.4,4.7-1.1c1.1-.6,2.1-1.4,2.9-2.5v2.7h4.4v-35.3h-4.7v12.1ZM544.8,348.1c1.2,1.5,1.8,3.7,1.8,6.8s-.6,5.4-1.8,7c-1.2,1.6-2.6,2.4-4.4,2.4s-4-.8-5.1-2.6c-1.1-1.7-1.6-4-1.6-6.6s.6-5.4,1.9-7c1.2-1.6,2.8-2.3,4.8-2.3s3.2.7,4.4,2.2Z"/>
    <path class="st0" d="M573.8,354.8c-1.1-.7-3.1-1.4-6.2-2.2l-2.8-.7c-1.2-.3-2.1-.6-2.7-1-1-.6-1.5-1.3-1.5-2.3s.4-1.6,1.1-2.1c.8-.6,1.9-.8,3.4-.8,2.3,0,3.9.5,4.8,1.5.6.7.9,1.5.9,2.4v.3h4.6v-.3c0-1.7-.5-3.3-1.6-4.8-1.7-2.3-4.6-3.5-8.4-3.5s-5.3.8-7.1,2.3c-1.8,1.5-2.7,3.6-2.7,6s1,3.8,2.9,5c1,.7,2.7,1.3,4.8,1.8l3.3.8c1.8.4,2.9.8,3.5,1.2.8.5,1.3,1.2,1.3,2.2s-.5,2.2-1.6,2.8c-1.1.6-2.5,1-4,1-2.5,0-4.3-.6-5.3-1.9-.5-.7-.9-1.7-1-3.1v-.3h-4.7v.4c.1,2.6,1,4.8,2.6,6.5,1.6,1.8,4.4,2.7,8.2,2.7s6.2-.9,8-2.5c1.8-1.7,2.6-3.7,2.6-6s-.9-4.2-2.6-5.4Z"/>
    <path class="st0" d="M595.6,358.5c-.4,1.8-1,3.2-2,4.2-.9,1-2.2,1.5-3.8,1.5s-3.6-.8-4.6-2.4c-1-1.7-1.5-3.7-1.5-6.2s.4-4.5,1.1-6.2c1.1-2.5,2.8-3.7,5.3-3.7s3.1.5,3.9,1.4c.8,1,1.4,2.2,1.6,3.7v.3h4.8v-.4c-.4-3.4-1.5-5.9-3.3-7.3-1.8-1.4-4.2-2.1-7-2.1s-6.1,1.3-8.3,3.8c-2.2,2.5-3.2,6-3.2,10.5s1,6.8,3,9.2c2,2.5,4.7,3.7,8,3.7s5.4-.8,7.3-2.4c1.9-1.6,3.1-4.1,3.6-7.5v-.4c0,0-4.7,0-4.7,0v.3Z"/>
    <path class="st0" d="M625.5,364.2c-.8,0-1.3,0-1.4-.2-.1-.2-.2-.5-.2-.9v-14.5c0-2.5-1-4.4-2.9-5.6-1.9-1.2-4.3-1.7-7.2-1.7s-4.8.6-6.8,1.9c-2,1.3-3,3.6-3.1,6.8v.4s4.5,0,4.5,0v-.3c.2-1.2.5-2.2,1-2.8.8-1.1,2.3-1.7,4.3-1.7s3.2.3,4.1.9c.9.6,1.3,1.5,1.3,2.8s0,1.1-.2,1.5c-.3.6-.8.9-1.6,1l-6.6.8c-2.4.3-4.3,1.1-5.8,2.5-1.5,1.3-2.3,3.3-2.3,5.7s.8,4.1,2.3,5.6c1.5,1.5,3.5,2.2,5.9,2.2s3.8-.4,5.4-1.3c1.3-.7,2.4-1.5,3.3-2.4.1.7.4,1.3.6,1.7.7,1.1,1.9,1.7,3.4,1.7s1.1,0,1.4,0c.4,0,.9-.2,1.5-.4h.3v-3.9h-.4c-.3.1-.5.2-.7.2ZM619,355.3v2.8c0,2.5-1.1,4.2-3.3,5.3-1.3.7-2.7,1-4.1,1s-2.1-.3-2.9-1c-.8-.6-1.2-1.5-1.2-2.6s.6-2.5,1.7-3.2c.7-.4,1.8-.7,3.3-.9l2.5-.3c.8,0,1.6-.3,2.4-.5.6-.2,1.1-.3,1.5-.6Z"/>
    <path class="st0" d="M641.7,341.4c-2,0-3.7.5-5.1,1.5-.8.5-1.5,1.1-2.2,1.9v-2.7h-4.8v35.7h4.9v-12.2c.7.8,1.3,1.4,1.9,1.7,1.3.9,3,1.3,4.9,1.3s4.6-.8,6.5-2.3c2.9-2.4,4.4-6.4,4.4-12s-1-7.3-3-9.6c-2-2.2-4.5-3.4-7.4-3.4ZM647.2,354.8c0,3.2-.6,5.6-1.9,7.2-1.2,1.6-2.7,2.3-4.6,2.3-2.7,0-4.6-1.2-5.6-3.7-.5-1.3-.8-2.9-.8-4.8s.3-4.3.8-5.8c1-2.8,2.8-4.2,5.6-4.2s4.6,1.3,5.6,3.9c.6,1.4.8,3.1.8,5Z"/>
    <rect class="st0" x="656.2" y="342.1" width="4.9" height="25.7"/>
    <rect class="st0" x="656.2" y="332.7" width="4.9" height="5.5"/>
    <path class="st0" d="M679,341.4c-1.6,0-3.2.3-4.5,1-1.1.5-2.2,1.4-3.2,2.5v-3h-4.6v25.8h4.9v-13.5c0-1.6.1-2.9.3-3.7.2-.8.6-1.6,1.3-2.4.8-1,1.8-1.6,2.8-2,.6-.2,1.4-.3,2.3-.3,1.8,0,3,.7,3.7,2.1.4.9.6,2.1.6,3.6v16.2h4.9v-16.5c0-2.6-.4-4.6-1-6-1.3-2.6-3.8-3.9-7.4-3.9Z"/>
    <path class="st0" d="M709,344.8c-.6-.7-1.2-1.3-1.8-1.7h0c-1.5-1-3.3-1.5-5.2-1.5-2.9,0-5.5,1.2-7.6,3.7-2.1,2.4-3.1,5.8-3.1,10.1s1,7.8,3.1,9.8c2.1,2,4.5,3,7.2,3s3.6-.3,4.8-1c.9-.5,1.7-1.2,2.5-2.1,0,2.8-.3,4.8-.8,6-.9,2.2-2.8,3.2-5.9,3.2s-3.3-.4-4.1-1.3c-.5-.6-.9-1.4-1.1-2.4v-.3h-4.9v.4c.3,2.7,1.3,4.7,3.2,6,1.9,1.2,4.2,1.9,6.9,1.9,4.9,0,8.3-1.8,10-5.3.9-1.9,1.4-4.5,1.4-7.7v-23.2h-4.5v2.5ZM707.2,348.1c1.2,1.4,1.8,3.7,1.8,6.7s-.3,3.8-1,5.3c-1.2,2.6-3.1,3.9-5.9,3.9s-3.2-.7-4.2-2.1c-1.1-1.4-1.6-3.5-1.6-6.2s.3-4.3.8-5.7c1-2.7,2.9-3.9,5.6-3.9s3.3.7,4.5,2.1Z"/>
    <path class="st0" d="M755.4,357.7c.8-2,1.3-4.2,1.6-6.4v-.4s-4.6,0-4.6,0v.3c-.2,1.1-.4,1.9-.5,2.6-.1.5-.3,1.2-.6,2.2l-5.5-6.7c1.7-1.2,3-2.3,3.7-3.2,1.4-1.7,2.1-3.7,2.1-6s-.7-3.7-2.1-5.1c-1.4-1.4-3.3-2.1-5.7-2.1s-4.6.8-6.2,2.3c-1.5,1.5-2.3,3.5-2.3,5.8s.3,2.3.8,3.4c.5,1.1,1.4,2.4,2.7,4-2.4,1.5-4.1,2.8-5,3.8-1.6,1.8-2.4,4.1-2.4,6.8s.8,4.8,2.5,6.8c1.7,2,4.3,3,7.9,3s4.6-.6,6.5-1.7c1-.6,2.1-1.6,3.2-2.8l3,3.8h6.2l-6.2-7.7c.2-.4.5-1.1,1-2.4ZM740.5,338.5c.6-1,1.6-1.6,3.2-1.6s1.8.3,2.4,1c.6.7.9,1.5.9,2.4s-.4,2.3-1.3,3.3h0c-.5.6-1.4,1.4-2.7,2.3-1.1-1.3-1.9-2.3-2.3-3.1-.5-.8-.7-1.7-.7-2.6s.2-1.2.5-1.8ZM742,364.2c-1.4,0-2.7-.5-4-1.4-1.2-.9-1.8-2.2-1.8-3.9s.5-3,1.4-4.1c.6-.7,1.9-1.8,3.9-3.1l7.2,9c-.6.9-1.5,1.7-2.6,2.4-1.2.8-2.6,1.1-4.2,1.1Z"/>
    <path class="st0" d="M793.3,332.7h-15.5v35.2h5.3v-14.6h10.2c3.5,0,6.1-1,7.8-3.1,1.7-2.1,2.5-4.5,2.5-7.2s-1-5.8-2.9-7.5c-1.9-1.8-4.4-2.7-7.5-2.7ZM783.1,337.4h8.7c1.7,0,3,.2,4,.7,1.7.8,2.5,2.4,2.5,4.8s-.6,3.6-1.8,4.4c-1.2.8-2.8,1.3-4.8,1.3h-8.7v-11.2Z"/>
    <path class="st0" d="M819.8,341.5c-.2,0-.3,0-.4,0-1.7,0-3.3.6-4.6,1.9-.8.7-1.3,1.4-1.8,2v-3.3h-4.6v25.8h4.9v-14.8c0-1.7.5-3.2,1.6-4.5,1.1-1.3,2.5-1.9,4.5-1.9s.5,0,.7,0c.2,0,.4,0,.6,0h.4c0,0,0-5.1,0-5.1h-.3c-.4,0-.8-.1-1-.1Z"/>
    <path class="st0" d="M834.2,341.3c-3.6,0-6.5,1.3-8.7,3.9-2.1,2.6-3.2,6-3.2,10.3s1,7.2,3.1,9.6c2,2.4,4.8,3.6,8.3,3.6s7.2-1.4,9.2-4.1c2-2.7,2.9-6.1,2.9-10.2s-1.1-7.5-3.4-9.8c-2.2-2.2-5-3.3-8.3-3.3ZM839.3,361.4c-1,2-2.7,3-5.3,3s-4-.8-5.1-2.5c-1.1-1.7-1.7-3.9-1.7-6.5s.6-5,1.7-6.9c1.1-1.9,2.8-2.8,5.2-2.8s4.6,1.1,5.6,3.3c.7,1.4,1.1,3.3,1.1,5.6s-.5,4.9-1.5,6.9Z"/>
    <path class="st0" d="M861.9,341.4c-2,0-3.7.5-5.1,1.5-.8.5-1.5,1.1-2.2,1.9v-2.7h-4.8v35.7h4.9v-12.2c.7.8,1.3,1.4,1.9,1.7,1.3.9,3,1.3,4.9,1.3s4.6-.8,6.5-2.3c2.9-2.4,4.4-6.4,4.4-12s-1-7.3-3-9.6c-2-2.2-4.5-3.4-7.4-3.4ZM867.4,354.8c0,3.2-.6,5.6-1.9,7.2-1.2,1.6-2.7,2.3-4.6,2.3-2.7,0-4.6-1.2-5.6-3.7-.5-1.3-.8-2.9-.8-4.8s.3-4.3.8-5.8c1-2.8,2.8-4.2,5.6-4.2s4.6,1.3,5.6,3.9c.6,1.4.8,3.1.8,5Z"/>
    <path class="st0" d="M896.1,346.1c-.9-1.4-2.2-2.5-3.9-3.4-1.7-.9-3.4-1.3-5.2-1.3-3.5,0-6.5,1.3-8.6,3.9-2.2,2.6-3.3,6-3.3,10.1s1.1,7.5,3.3,9.8c2.2,2.3,4.9,3.5,8,3.5s2.4-.1,3.4-.4c1.9-.5,3.5-1.3,4.8-2.6.8-.7,1.5-1.7,2.1-2.9.6-1.2,1-2.2,1.1-3.2v-.4s-4.7,0-4.7,0v.3c-.4,1.1-.8,2-1.5,2.8-1.2,1.4-2.8,2.1-4.9,2.1s-3.8-.7-4.8-2.2c-1-1.4-1.6-3.3-1.7-5.6h17.9v-.4c0-2.5-.1-4.4-.4-5.6-.3-1.7-.9-3.3-1.7-4.6ZM886.7,345.8c2.5,0,4.3.9,5.3,2.9.5,1,.9,2.3,1.1,3.9h-12.8c.1-1.9.8-3.5,1.9-4.7,1.2-1.3,2.7-2,4.5-2Z"/>
    <path class="st0" d="M914.2,341.5c-.2,0-.3,0-.4,0-1.7,0-3.3.6-4.6,1.9-.8.7-1.3,1.4-1.8,2v-3.3h-4.6v25.8h4.9v-14.8c0-1.7.5-3.2,1.6-4.5,1.1-1.3,2.5-1.9,4.5-1.9s.5,0,.7,0c.2,0,.4,0,.6,0h.4c0,0,0-5.1,0-5.1h-.3c-.4,0-.8-.1-1-.1Z"/>
    <path class="st0" d="M924.1,335h-4.9v7h-3.3v4.2h3.3v16.3c0,1.7.4,3.1,1.1,4.1.8,1.1,2.2,1.7,4.2,1.7s1.2,0,1.7,0c.5,0,1-.2,1.5-.3h.3v-4.1h-.4c-.3,0-.6.1-.8.1-.2,0-.4,0-.6,0-.9,0-1.3-.1-1.5-.2-.5-.2-.7-.7-.7-1.4v-16h3.9v-4.2h-3.9v-7Z"/>
    <path class="st0" d="M940.6,361.7l-6.3-19.4v-.2h-5.5l9.2,26.2c-.2.6-.5,1.4-1,2.4-.6,1.5-.8,1.8-.8,1.9-.2.3-.5.6-.8.9-.3.2-.8.3-1.5.3s-.5,0-.8,0c-.3,0-.8-.2-1.5-.4h-.4c0-.1,0,4.5,0,4.5h.3c.5.2.9.3,1.2.3.3,0,.8,0,1.4,0,2.5,0,4.3-.8,5.4-2.3,1-1.4,2.7-5.3,5.1-11.8,1-2.7,2.3-6.3,3.8-10.6,2-5.8,3.3-9.4,3.9-11l.2-.5h-5.3l-6.4,19.7Z"/>
    <path class="st0" d="M985.3,361l-9.4-28.1v-.2h-7.3v35.2h5.1v-20.7c0-.8,0-2.1,0-3.8,0-1.1,0-2,0-2.7l9.1,27.2h5.1l9-27.2c0,1,0,2.1,0,3,0,1.6,0,2.8,0,3.5v20.7h5.1v-35.2h-7.1l-9.4,28.4Z"/>
    <path class="st0" d="M1029.2,364.2c-.8,0-1.3,0-1.4-.2-.1-.2-.2-.5-.2-.9v-14.5c0-2.5-1-4.4-2.9-5.6-1.9-1.2-4.3-1.7-7.2-1.7s-4.8.6-6.8,1.9c-2,1.3-3,3.6-3.1,6.8v.4s4.5,0,4.5,0v-.3c.2-1.2.5-2.2,1-2.8.8-1.1,2.3-1.7,4.3-1.7s3.2.3,4.1.9c.9.6,1.3,1.5,1.3,2.8s0,1.1-.2,1.5c-.3.6-.8.9-1.6,1l-6.6.8c-2.4.3-4.3,1.1-5.8,2.5-1.5,1.3-2.3,3.3-2.3,5.7s.8,4.1,2.3,5.6c1.5,1.5,3.5,2.2,5.9,2.2s3.8-.4,5.4-1.3c1.3-.7,2.4-1.5,3.3-2.4.1.7.4,1.3.6,1.7.7,1.1,1.9,1.7,3.4,1.7s1.1,0,1.4,0c.4,0,.9-.2,1.5-.4h.3v-3.9h-.4c-.3.1-.5.2-.7.2ZM1022.7,355.3v2.8c0,2.5-1.1,4.2-3.3,5.3-1.3.7-2.7,1-4.1,1s-2.1-.3-2.9-1c-.8-.6-1.2-1.5-1.2-2.6s.6-2.5,1.7-3.2c.7-.4,1.8-.7,3.3-.9l2.5-.3c.8,0,1.6-.3,2.4-.5.6-.2,1.1-.3,1.5-.6Z"/>
    <rect class="st0" x="1033.7" y="342.1" width="4.9" height="25.7"/>
    <rect class="st0" x="1033.7" y="332.7" width="4.9" height="5.5"/>
    <path class="st0" d="M1056.5,341.4c-1.6,0-3.2.3-4.5,1-1.1.5-2.2,1.4-3.2,2.5v-3h-4.6v25.8h4.9v-13.5c0-1.6.1-2.9.3-3.7.2-.8.6-1.6,1.3-2.4.8-1,1.8-1.6,2.8-2,.6-.2,1.4-.3,2.3-.3,1.8,0,3,.7,3.7,2.1.4.9.6,2.1.6,3.6v16.2h4.9v-16.5c0-2.6-.4-4.6-1-6-1.3-2.6-3.8-3.9-7.4-3.9Z"/>
    <path class="st0" d="M1076.1,335h-4.9v7h-3.3v4.2h3.3v16.3c0,1.7.4,3.1,1.1,4.1.8,1.1,2.2,1.7,4.2,1.7s1.2,0,1.7,0c.5,0,1-.2,1.5-.3h.3v-4.1h-.4c-.3,0-.6.1-.8.1-.2,0-.4,0-.6,0-.9,0-1.3-.1-1.5-.2-.5-.2-.7-.7-.7-1.4v-16h3.9v-4.2h-3.9v-7Z"/>
    <path class="st0" d="M1103.1,346.1c-.9-1.4-2.2-2.5-3.9-3.4-1.7-.9-3.4-1.3-5.2-1.3-3.5,0-6.5,1.3-8.6,3.9-2.2,2.6-3.3,6-3.3,10.1s1.1,7.5,3.3,9.8c2.2,2.3,4.9,3.5,8,3.5s2.4-.1,3.4-.4c1.9-.5,3.5-1.3,4.8-2.6.8-.7,1.5-1.7,2.1-2.9.6-1.2,1-2.2,1.1-3.2v-.4s-4.7,0-4.7,0v.3c-.4,1.1-.8,2-1.5,2.8-1.2,1.4-2.8,2.1-4.9,2.1s-3.8-.7-4.8-2.2c-1-1.4-1.6-3.3-1.7-5.6h17.9v-.4c0-2.5-.1-4.4-.4-5.6-.3-1.7-.9-3.3-1.7-4.6ZM1093.8,345.8c2.5,0,4.3.9,5.3,2.9.5,1,.9,2.3,1.1,3.9h-12.8c.1-1.9.8-3.5,1.9-4.7,1.2-1.3,2.7-2,4.5-2Z"/>
    <path class="st0" d="M1122.1,341.4c-1.6,0-3.2.3-4.5,1-1.1.5-2.2,1.4-3.2,2.5v-3h-4.6v25.8h4.9v-13.5c0-1.6.1-2.9.3-3.7.2-.8.6-1.6,1.3-2.4.8-1,1.8-1.6,2.8-2,.6-.2,1.4-.3,2.3-.3,1.8,0,3,.7,3.7,2.1.4.9.6,2.1.6,3.6v16.2h4.9v-16.5c0-2.6-.4-4.6-1-6-1.3-2.6-3.8-3.9-7.4-3.9Z"/>
    <path class="st0" d="M1157.7,364.2c-.8,0-1.3,0-1.4-.2-.1-.2-.2-.5-.2-.9v-14.5c0-2.5-1-4.4-2.9-5.6-1.9-1.2-4.3-1.7-7.2-1.7s-4.8.6-6.8,1.9c-2,1.3-3,3.6-3.1,6.8v.4s4.5,0,4.5,0v-.3c.2-1.2.5-2.2,1-2.8.8-1.1,2.3-1.7,4.3-1.7s3.2.3,4.1.9c.9.6,1.3,1.5,1.3,2.8s0,1.1-.2,1.5c-.3.6-.8.9-1.6,1l-6.6.8c-2.4.3-4.3,1.1-5.8,2.5-1.5,1.3-2.3,3.3-2.3,5.7s.8,4.1,2.3,5.6c1.5,1.5,3.5,2.2,5.9,2.2s3.8-.4,5.4-1.3c1.3-.7,2.4-1.5,3.3-2.4.1.7.4,1.3.6,1.7.7,1.1,1.9,1.7,3.4,1.7s1.1,0,1.4,0c.4,0,.9-.2,1.5-.4h.3v-3.9h-.4c-.3.1-.5.2-.7.2ZM1151.3,355.3v2.8c0,2.5-1.1,4.2-3.3,5.3-1.3.7-2.7,1-4.1,1s-2.1-.3-2.9-1c-.8-.6-1.2-1.5-1.2-2.6s.6-2.5,1.7-3.2c.7-.4,1.8-.7,3.3-.9l2.5-.3c.8,0,1.6-.3,2.4-.5.6-.2,1.1-.3,1.5-.6Z"/>
    <path class="st0" d="M1174.5,341.4c-1.6,0-3.2.3-4.5,1-1.1.5-2.2,1.4-3.2,2.5v-3h-4.6v25.8h4.9v-13.5c0-1.6.1-2.9.3-3.7.2-.8.6-1.6,1.3-2.4.8-1,1.8-1.6,2.8-2,.6-.2,1.4-.3,2.3-.3,1.8,0,3,.7,3.7,2.1.4.9.6,2.1.6,3.6v16.2h4.9v-16.5c0-2.6-.4-4.6-1-6-1.3-2.6-3.8-3.9-7.4-3.9Z"/>
    <path class="st0" d="M1203.8,358.5c-.4,1.8-1,3.2-2,4.2-.9,1-2.2,1.5-3.8,1.5s-3.6-.8-4.6-2.4c-1-1.7-1.5-3.7-1.5-6.2s.4-4.5,1.1-6.2c1.1-2.5,2.8-3.7,5.3-3.7s3.1.5,3.9,1.4c.8,1,1.4,2.2,1.6,3.7v.3h4.8v-.4c-.4-3.4-1.5-5.9-3.3-7.3-1.8-1.4-4.2-2.1-7-2.1s-6.1,1.3-8.3,3.8c-2.2,2.5-3.2,6-3.2,10.5s1,6.8,3,9.2c2,2.5,4.7,3.7,8,3.7s5.4-.8,7.3-2.4c1.9-1.6,3.1-4.1,3.6-7.5v-.4c0,0-4.7,0-4.7,0v.3Z"/>
    <path class="st0" d="M1233.7,356.3c0-2.5-.1-4.4-.4-5.6-.3-1.7-.9-3.3-1.7-4.6-.9-1.4-2.2-2.5-3.9-3.4-1.7-.9-3.4-1.3-5.2-1.3-3.5,0-6.5,1.3-8.6,3.9-2.2,2.6-3.3,6-3.3,10.1s1.1,7.5,3.3,9.8c2.2,2.3,4.9,3.5,8,3.5s2.4-.1,3.4-.4c1.9-.5,3.5-1.3,4.8-2.6.8-.7,1.5-1.7,2.1-2.9.6-1.2,1-2.2,1.1-3.2v-.4s-4.7,0-4.7,0v.3c-.4,1.1-.8,2-1.5,2.8-1.2,1.4-2.8,2.1-4.9,2.1s-3.8-.7-4.8-2.2c-1-1.4-1.6-3.3-1.7-5.6h17.9v-.4ZM1222.3,345.8c2.5,0,4.3.9,5.3,2.9.5,1,.9,2.3,1.1,3.9h-12.8c.1-1.9.8-3.5,1.9-4.7,1.2-1.3,2.7-2,4.5-2Z"/>
  </g>
  <path class="st1" d="M398.6,297.9c277.2-4.1,560.1-4.1,837.2-.5,0,0,27,.5,27,.5l-27,.5c-277.1,3.6-560.1,3.7-837.2-.5h0Z"/>
</svg>