<?xml version="1.0" encoding="UTF-8"?>
<svg id="Layer_1" data-name="Layer 1" xmlns="http://www.w3.org/2000/svg" viewBox="0 0 1500 1500">
  <defs>
    <style>
      .cls-1 {
        fill: #101c3d;
      }

      .cls-2 {
        fill: #477827;
      }

      .cls-3 {
        fill: #3d7123;
      }

      .cls-4 {
        fill: #162142;
      }
    </style>
  </defs>
  <polygon class="cls-3" points="292.72 666.74 292.73 667.15 292.73 666.65 292.72 666.74"/>
  <path class="cls-4" d="M228.1,829.47c2.91,5.2,5.72,10.9,8.33,17.12l11.54-54.05h44.31c12.31,0,22.55-2.07,30.77-6.26.02-.01.05-.02.07-.04h.01c.8-.4,1.57-.82,2.33-1.27.76-.45,1.51-.91,2.23-1.41,1.93-1.31,3.67-2.71,5.18-4.18,1.83-1.78,3.34-3.69,4.54-5.73,2.39-4.01,3.57-8.51,3.57-13.49,0-8.05-2.82-14.73-8.47-20.02-.09-.09-.2-.18-.29-.26-.36-.34-.74-.66-1.13-.98-1.22-1.01-2.56-1.97-4-2.87-1.25-.79-2.58-1.51-3.96-2.17h-.01c-3.82-1.83-8.08-3.21-12.8-4.13v-1.61c3.87-.73,7.57-2.06,11.09-4.03,2.03-1.13,4-2.47,5.9-4.01,5.23-4.22,7.83-9.93,7.83-17.12,0-11.84-6.43-20-19.32-24.46-6.41-2.25-14.38-3.42-23.89-3.56-.62-.01-1.24-.01-1.86-.01h-2.92c-3.09,0-6.18.22-9.24.66l-9.51,1.35-34.32,4.86-26.96,3.62-73.37,9.88,102.23,97.17-7.9,36.99ZM278.23,687.88c11.26-1.24,15.03-1.37,15.03-1.37,10.6,0,19.19,8.47,19.39,19.01.2,10.86-9.02,19.75-19.89,19.75h-14.52v-37.39ZM278.18,738.74h16.55c12.06,0,21.78,10,21.33,22.13-.43,11.56-10.29,20.53-21.85,20.53h-16.03v-42.66ZM159.57,703.66l48.55-6.54,43.67-5.88c.07,1.32.01,2.16.01,2.16l-.08-.02v82.52s.73,6.12-3.75,11.79l-88.4-84.02Z"/>
  <path class="cls-3" d="M428.71,845.71l-11.37-53.23,102.23-97.17-134.52-18.11-58.38-116.99-54.87,109.52,14.17-2.13,40.7-81.13,50.66,101.52,116.44,15.68-89.26,84.84,11.35,53.14c-2.41-1.52-4.35-3.23-5.79-4.71-2.05-2.1-3.09-3.75-3.09-3.75l-23.21-42.01s-.35-.32-.57-.52c10.16-2.95,24.89-10.97,25.22-32.66.5-33.19-29.81-33.7-29.81-33.7h-31.04l-17.77-.2c-2.2,1.76-4.5,3.26-6.88,4.52.75.32,1.5.64,2.23,1l2.67,1.27v.12c.6.34,1.2.69,1.77,1.05.54.34,1.08.69,1.59,1.05,1.02.69,1.99,1.42,2.91,2.18.56.47,1.09.94,1.61,1.41,6.63,6.2,9.99,14.09,9.99,23.46,0,7.67-2.43,14.43-7.24,20.12-.7.84-1.47,1.65-2.27,2.45-1.69,1.65-3.65,3.23-5.83,4.71-.75.52-1.57,1.03-2.5,1.57-.88.52-1.72.97-2.6,1.42l-.98.49h-.02c-.39.19-.77.36-1.17.54v13.15l.07-.05v48.93l-35.59,21.47-8.77,5.29c3.62-16.3,16.35-41.47,16.35-41.47-18.53,11.3-32.54,47.44-32.54,47.44-3.61-16.27,11.3-56.02,11.3-56.02-23.5,17.16-31.18,63.7-31.18,63.7-2.22-12.97-5.32-24.52-8.95-34.75-2.44-6.87-5.12-13.15-7.96-18.87-19.12-38.74-44.77-52.41-45.85-52.98,24.77,21.67,35.24,66.89,38.72,86.32.96,5.36,1.39,8.76,1.44,9.17-.75-1.73-1.51-3.42-2.32-5.05-18.32-37.92-47.37-49.12-47.37-49.12,39.37,43.11,40.06,80.18,36.73,98.94l-1.1,5.16c-1.29,5.13-2.65,7.95-2.65,7.95l14.9-10.24,66.85-40.33,41.53-25.06,2.13,1.29,21.94,13.02-.02-7.06h.02s0-78.57,0-78.57h9.99l20.67,38.1c9.39,17.8,21.74,21.61,32.01,20.8,1.61-.12,3.16-.36,4.64-.68l.69,3.22.33,1.56,12.35,57.82-73.15-43.78v13.68l90.26,54.11-19.37-90.7-.46-2.16ZM361.25,781.53l-10.5.18v-45.9h10.5c12.62,0,22.87,10.24,22.87,22.85s-10.24,22.87-22.87,22.87Z"/>
  <path class="cls-1" d="M682.35,664.47c-28.88,0-52.3,22.53-52.3,50.34s23.42,50.33,52.3,50.33,52.29-22.53,52.29-50.33-23.42-50.34-52.29-50.34ZM682.93,753.36c-16.31,0-29.54-17.05-29.54-38.09s13.23-38.07,29.54-38.07,29.53,17.05,29.53,38.07-13.22,38.09-29.53,38.09Z"/>
  <path class="cls-1" d="M586.98,667.65h0c-1.77,1.4-2.8,3.53-2.8,5.79v76.85h27.25c1.04,0,2.07-.22,3.03-.65l10-4.49v18.21h-69.45l2.58-2.92c1.19-1.35,1.85-3.09,1.85-4.89v-79.86c0-1.87-.71-3.67-1.98-5.04l-2.8-3.01h32.33Z"/>
  <path class="cls-1" d="M775.98,762.85l1.03,1.45h-25.56l1.04-1.57c2.14-3.24,3.28-7.04,3.28-10.92v-71.02c0-3.99-1.21-7.89-3.46-11.19l-1.09-1.59h27.2l52.99,61.75v-50.38c0-3.91-1.16-7.74-3.33-10.99l-.41-.61h25.1,0c-3.16,3.61-4.9,8.25-4.9,13.05v83.13h-16.11l-58.6-67s-.77,38.64-.83,54.38c-.02,4.13,1.26,8.15,3.65,11.52Z"/>
  <path class="cls-1" d="M943,744.75v19.08h-73.19l3.05-4.15c1.09-1.48,1.67-3.26,1.67-5.09v-77.33c0-1.77-.55-3.5-1.57-4.94l-2.87-4.08h67.82v16.81l-3.36-3.16c-1.59-1.5-3.7-2.33-5.88-2.33h-29.05v27.31h24.35c1.78,0,3.51-.55,4.96-1.58l2.56-1.81v19.26l-2.39-2.39c-1.61-1.61-3.8-2.52-6.07-2.52h-23.52v33.38h28.75c1.36,0,2.7-.32,3.91-.94l10.82-5.54Z"/>
  <path class="cls-1" d="M1103.64,763.92h-31.95l.55-.65c2.31-2.75,3.57-6.22,3.57-9.8v-74.55h-16.5c-2.22,0-4.42.49-6.44,1.43l-8.41,3.92v-17.25h86.67v18.03l-2.38-1.65c-2.55-1.77-5.59-2.72-8.7-2.72h-19.74v73.22c0,2.51.62,4.98,1.8,7.2l1.52,2.84Z"/>
  <path class="cls-1" d="M1201.69,763.58h30.58l-39.51-95.96h-30.65c1.39,2.89,1.45,6.24.15,9.18l-38.48,87.21h26.43l-.63-1.48c-1.23-2.84-1.2-6.05.06-8.87l7.69-17.07h37.48l6.86,19.58c.71,2.01.81,4.17.31,6.23l-.29,1.17ZM1161.66,722.6l14.71-35.83,13.31,35.83h-28.02Z"/>
  <path class="cls-1" d="M1301.67,719.56s19.43-2.44,19.61-27.48c.17-25.04-26.26-24.35-26.26-24.35h-53.17l1.55,3.47c1.05,2.33,1.6,4.86,1.6,7.42v73.53c0,4.07-1.38,8.01-3.89,11.21l-.07.09h31.04l-1.04-1.89c-1.45-2.67-2.22-5.66-2.22-8.69v-29.58h10.5l26.03,40.28h28.48l-32.16-44.02ZM1268.92,711.86v-32.03s29.07-6.14,28.71,15.06c-.35,21.18-28.71,16.98-28.71,16.98Z"/>
  <path class="cls-1" d="M1026.89,667.45v20.31s-15.17-13.54-31.75-8.64c-16.58,4.9-13.77,18.68,2.98,23.64,16.54,4.9,38.81,16.98,34.61,38.69s-38.05,31.75-72.84,19.14v-21.01s20.08,16.11,35.25,12.61c15.17-3.5,18.68-14.47,10.27-20.78-8.4-6.3-46.69-15.41-44.59-39.22,2.1-23.81,25.45-33.85,66.07-24.75Z"/>
  <g>
    <polygon class="cls-1" points="561.79 839.92 556.5 839.92 556.5 875.08 578.76 875.08 578.76 870.27 561.79 870.27 561.79 839.92"/>
    <path class="cls-1" d="M603.93,871.48c-.75.08-1.26.01-1.41-.2-.14-.21-.21-.5-.21-.86v-14.47c0-2.49-.96-4.36-2.86-5.55-1.86-1.16-4.3-1.74-7.25-1.74-2.56,0-4.84.63-6.78,1.88-1.99,1.28-3.04,3.55-3.12,6.77v.36s4.54,0,4.54,0l.04-.31c.15-1.23.45-2.17.92-2.77.83-1.1,2.28-1.65,4.32-1.65,1.79,0,3.18.31,4.12.92.91.59,1.34,1.52,1.34,2.85,0,.65-.08,1.14-.24,1.47-.27.58-.8.91-1.64,1.02l-6.61.84c-2.38.3-4.33,1.13-5.81,2.45-1.5,1.35-2.26,3.25-2.26,5.67,0,2.21.77,4.08,2.28,5.56,1.51,1.47,3.48,2.22,5.85,2.22,1.95,0,3.77-.43,5.39-1.28,1.34-.7,2.43-1.51,3.26-2.43.15.69.36,1.26.63,1.69.71,1.14,1.86,1.71,3.41,1.71.6,0,1.07-.02,1.43-.07.36-.05.86-.17,1.52-.36l.25-.07v-3.81l-.42.07c-.25.05-.49.08-.71.1ZM597.47,862.57v2.79c0,2.47-1.07,4.19-3.26,5.28-1.31.66-2.68.99-4.08.99-1.13,0-2.07-.32-2.89-.98-.79-.64-1.18-1.49-1.18-2.6,0-1.48.57-2.53,1.75-3.2.71-.41,1.81-.72,3.26-.91l2.5-.33c.78-.1,1.59-.26,2.4-.48.57-.16,1.07-.34,1.51-.56Z"/>
    <path class="cls-1" d="M620.76,848.69c-1.64,0-3.16.34-4.51,1-1.11.55-2.19,1.39-3.2,2.52v-2.95h-4.64v25.82h4.85v-13.51c0-1.61.1-2.85.3-3.71.19-.83.62-1.64,1.27-2.42.81-.97,1.76-1.63,2.83-1.95.59-.19,1.37-.29,2.31-.29,1.8,0,3.01.7,3.69,2.14.42.88.63,2.08.63,3.55v16.18h4.92v-16.47c0-2.58-.35-4.59-1.05-6-1.29-2.61-3.78-3.93-7.41-3.93Z"/>
    <path class="cls-1" d="M650.69,851.87c-.71-.81-1.36-1.41-1.96-1.79-1.32-.85-2.98-1.27-4.92-1.27-3.5,0-6.24,1.41-8.13,4.18-1.86,2.73-2.8,5.99-2.8,9.71,0,3.98,1.04,7.22,3.09,9.62,2.06,2.42,4.55,3.65,7.38,3.65,1.75,0,3.32-.36,4.68-1.07,1.08-.57,2.05-1.41,2.9-2.53v2.71h4.44v-35.28h-4.69v12.07ZM649.03,855.36c1.21,1.45,1.82,3.75,1.82,6.82s-.6,5.41-1.78,7.03c-1.17,1.6-2.62,2.38-4.42,2.38-2.35,0-4.01-.83-5.06-2.55-1.08-1.75-1.62-3.96-1.62-6.57,0-3.06.63-5.4,1.86-6.96,1.23-1.55,2.79-2.31,4.78-2.31,1.77,0,3.22.71,4.43,2.16Z"/>
    <path class="cls-1" d="M678.09,862.07c-1.08-.72-3.11-1.43-6.21-2.18l-2.79-.68c-1.18-.29-2.07-.62-2.67-.99-.98-.59-1.46-1.35-1.46-2.32,0-.89.36-1.58,1.09-2.12.76-.56,1.91-.84,3.43-.84,2.29,0,3.9.52,4.79,1.52.55.72.87,1.53.94,2.4l.03.32h4.59v-.35c.04-1.7-.49-3.3-1.58-4.77-1.73-2.3-4.56-3.47-8.43-3.47-2.95,0-5.34.77-7.1,2.29-1.78,1.53-2.68,3.56-2.68,6.04,0,2.14.97,3.83,2.88,5.03,1.04.68,2.67,1.29,4.83,1.83l3.35.84c1.76.44,2.94.83,3.51,1.16.84.5,1.25,1.21,1.25,2.16,0,1.3-.53,2.23-1.61,2.85-1.13.65-2.47.97-3.96.97-2.51,0-4.28-.64-5.27-1.9-.53-.69-.87-1.72-.99-3.05l-.03-.32h-4.68l.02.37c.11,2.58.98,4.77,2.58,6.52,1.61,1.77,4.35,2.66,8.15,2.66,3.53,0,6.2-.85,7.95-2.54,1.75-1.69,2.64-3.72,2.64-6.05s-.87-4.24-2.57-5.38Z"/>
    <path class="cls-1" d="M699.86,865.77c-.37,1.78-1.04,3.2-2,4.21-.94,1-2.2,1.49-3.83,1.49-2.13,0-3.64-.79-4.63-2.41-1-1.65-1.51-3.73-1.51-6.16s.36-4.51,1.08-6.16c1.08-2.51,2.83-3.72,5.34-3.72,1.82,0,3.14.47,3.95,1.41.83.97,1.37,2.21,1.6,3.68l.05.3h4.72l-.04-.39c-.36-3.44-1.46-5.92-3.28-7.35-1.8-1.42-4.15-2.14-7-2.14-3.35,0-6.14,1.28-8.31,3.8-2.15,2.51-3.24,6.05-3.24,10.53,0,3.66.99,6.76,2.96,9.22,1.98,2.48,4.67,3.73,7.99,3.73,2.94,0,5.4-.81,7.3-2.39,1.9-1.59,3.11-4.12,3.58-7.53l.06-.4h-4.72l-.06.28Z"/>
    <path class="cls-1" d="M729.79,871.48c-.75.08-1.26.01-1.41-.2-.14-.21-.21-.5-.21-.86v-14.47c0-2.49-.96-4.36-2.86-5.55-1.86-1.16-4.3-1.74-7.25-1.74-2.56,0-4.84.63-6.78,1.88-1.99,1.28-3.04,3.55-3.12,6.77v.36s4.54,0,4.54,0l.04-.31c.15-1.23.45-2.17.92-2.77.83-1.1,2.28-1.65,4.32-1.65,1.79,0,3.18.31,4.12.92.91.59,1.34,1.52,1.34,2.85,0,.65-.08,1.14-.24,1.47-.27.58-.8.91-1.64,1.02l-6.61.84c-2.38.3-4.33,1.13-5.81,2.45-1.5,1.35-2.26,3.25-2.26,5.67,0,2.21.77,4.08,2.28,5.56,1.51,1.47,3.48,2.22,5.85,2.22,1.95,0,3.77-.43,5.39-1.28,1.34-.7,2.43-1.51,3.26-2.43.15.69.36,1.26.63,1.69.71,1.14,1.86,1.71,3.41,1.71.6,0,1.07-.02,1.43-.07.36-.05.86-.17,1.52-.36l.25-.07v-3.81l-.42.07c-.25.05-.49.08-.71.1ZM723.32,862.57v2.79c0,2.47-1.07,4.19-3.26,5.28-1.31.66-2.68.99-4.08.99-1.13,0-2.07-.32-2.89-.98-.79-.64-1.18-1.49-1.18-2.6,0-1.48.57-2.53,1.75-3.2.71-.41,1.81-.72,3.26-.91l2.5-.33c.78-.1,1.59-.26,2.4-.48.57-.16,1.07-.34,1.51-.56Z"/>
    <path class="cls-1" d="M745.99,848.65c-1.96,0-3.68.49-5.13,1.46-.77.49-1.5,1.14-2.18,1.93v-2.67h-4.76v35.72h4.85v-12.21c.69.78,1.34,1.37,1.93,1.74,1.32.86,2.96,1.3,4.89,1.3,2.45,0,4.62-.78,6.47-2.31,2.89-2.4,4.36-6.44,4.36-12,0-4.12-1.02-7.34-3.02-9.58-2.02-2.25-4.51-3.39-7.4-3.39ZM751.44,862.02c0,3.19-.62,5.6-1.85,7.18-1.23,1.57-2.72,2.34-4.56,2.34-2.73,0-4.56-1.2-5.59-3.68-.55-1.31-.83-2.93-.83-4.81,0-2.36.28-4.32.83-5.84,1.02-2.79,2.84-4.15,5.58-4.15s4.56,1.28,5.59,3.93c.55,1.39.83,3.08.83,5.03Z"/>
    <rect class="cls-1" x="760.49" y="849.37" width="4.92" height="25.71"/>
    <rect class="cls-1" x="760.49" y="839.92" width="4.92" height="5.49"/>
    <path class="cls-1" d="M783.32,848.69c-1.65,0-3.16.34-4.51,1-1.11.55-2.19,1.39-3.2,2.52v-2.95h-4.65v25.82h4.85v-13.51c0-1.61.1-2.86.3-3.71.19-.82.62-1.64,1.27-2.42.81-.97,1.76-1.63,2.83-1.95.59-.19,1.37-.29,2.31-.29,1.8,0,3.01.7,3.69,2.14.42.89.63,2.08.63,3.55v16.18h4.92v-16.47c0-2.58-.35-4.59-1.05-6-1.29-2.61-3.78-3.93-7.41-3.93Z"/>
    <path class="cls-1" d="M813.3,852.02c-.62-.7-1.23-1.27-1.83-1.69h0c-1.49-1.01-3.26-1.52-5.25-1.52-2.94,0-5.48,1.23-7.55,3.67-2.06,2.42-3.1,5.81-3.1,10.08,0,4.53,1.04,7.84,3.1,9.84,2.06,1.99,4.49,3,7.23,3,1.96,0,3.57-.33,4.78-.98.92-.49,1.75-1.19,2.47-2.08-.02,2.81-.28,4.82-.78,5.97-.92,2.16-2.85,3.21-5.88,3.21-1.89,0-3.29-.44-4.15-1.3-.54-.55-.91-1.37-1.1-2.42l-.05-.29h-4.89l.03.38c.22,2.68,1.3,4.68,3.19,5.95,1.86,1.24,4.17,1.88,6.88,1.88,4.88,0,8.26-1.79,10.03-5.31.94-1.89,1.41-4.48,1.41-7.71v-23.2h-4.53v2.53ZM811.5,855.37c1.19,1.43,1.8,3.68,1.8,6.69,0,2-.33,3.78-.98,5.28-1.16,2.62-3.1,3.89-5.93,3.89-1.79,0-3.18-.68-4.24-2.08-1.07-1.41-1.61-3.51-1.61-6.25,0-2.35.28-4.28.82-5.71,1.02-2.66,2.86-3.95,5.63-3.95,1.85,0,3.32.7,4.52,2.12Z"/>
    <path class="cls-1" d="M859.66,864.97c.78-2.04,1.32-4.2,1.58-6.43l.05-.39h-4.64l-.04.3c-.16,1.09-.32,1.95-.48,2.55-.13.51-.35,1.23-.64,2.16l-5.49-6.71c1.72-1.19,2.98-2.27,3.74-3.2,1.41-1.71,2.12-3.74,2.12-6.01,0-1.98-.7-3.7-2.07-5.12-1.38-1.43-3.31-2.15-5.74-2.15s-4.62.77-6.15,2.3c-1.53,1.52-2.31,3.47-2.31,5.77,0,1.11.25,2.27.75,3.44.46,1.1,1.36,2.44,2.66,4-2.45,1.53-4.1,2.79-5.03,3.84-1.6,1.81-2.41,4.09-2.41,6.78,0,2.5.83,4.77,2.47,6.76,1.65,2.01,4.32,3.03,7.91,3.03,2.43,0,4.61-.59,6.47-1.74.99-.61,2.08-1.55,3.24-2.81l3.01,3.75h6.24l-6.23-7.73c.2-.37.5-1.08,1-2.38ZM844.77,845.75c.59-1.05,1.65-1.55,3.22-1.55,1.02,0,1.8.32,2.39.98.6.67.9,1.45.9,2.39,0,1.2-.42,2.32-1.26,3.31h0c-.49.59-1.38,1.36-2.65,2.3-1.07-1.26-1.85-2.3-2.32-3.1-.48-.81-.72-1.67-.72-2.56,0-.64.15-1.23.46-1.77ZM846.23,871.47c-1.4,0-2.73-.47-3.97-1.41-1.23-.92-1.82-2.21-1.82-3.94,0-1.59.48-2.96,1.43-4.06.61-.72,1.91-1.77,3.87-3.13l7.25,9.04c-.62.86-1.49,1.65-2.57,2.36-1.16.75-2.57,1.14-4.19,1.14Z"/>
    <path class="cls-1" d="M897.58,839.92h-15.49v35.16h5.29v-14.56h10.21c3.48,0,6.11-1.05,7.81-3.12,1.69-2.05,2.54-4.49,2.54-7.25,0-3.21-.97-5.75-2.87-7.54-1.9-1.78-4.42-2.69-7.49-2.69ZM887.38,844.64h8.7c1.69,0,3.03.23,3.98.69,1.71.85,2.55,2.43,2.55,4.84,0,2.12-.59,3.61-1.76,4.42-1.21.85-2.81,1.27-4.77,1.27h-8.7v-11.23Z"/>
    <path class="cls-1" d="M924.11,848.72c-.2-.02-.34-.02-.42-.02-1.73,0-3.28.64-4.6,1.92-.76.73-1.35,1.39-1.77,1.99v-3.34h-4.64v25.82h4.85v-14.8c0-1.69.54-3.2,1.6-4.5,1.06-1.29,2.55-1.92,4.54-1.92.24,0,.45,0,.65.02.19.02.41.04.64.09l.42.08v-5.2l-.32-.03c-.45-.05-.77-.08-.95-.09Z"/>
    <path class="cls-1" d="M938.48,848.53c-3.61,0-6.54,1.3-8.69,3.88-2.13,2.55-3.22,6.02-3.22,10.3,0,4,1.03,7.25,3.06,9.64,2.04,2.41,4.83,3.63,8.3,3.63,4.14,0,7.24-1.38,9.23-4.1,1.96-2.69,2.95-6.14,2.95-10.24s-1.14-7.55-3.38-9.76c-2.24-2.21-5.01-3.34-8.25-3.34ZM943.59,868.66c-.95,2-2.68,2.97-5.27,2.97-2.37,0-4.04-.82-5.12-2.51-1.1-1.71-1.65-3.9-1.65-6.49s.56-5.04,1.66-6.94c1.08-1.87,2.77-2.78,5.16-2.78,2.7,0,4.55,1.07,5.65,3.27.7,1.41,1.06,3.28,1.06,5.56,0,2.53-.5,4.85-1.48,6.91Z"/>
    <path class="cls-1" d="M966.22,848.65c-1.96,0-3.68.49-5.13,1.46-.77.49-1.5,1.14-2.18,1.93v-2.67h-4.76v35.72h4.85v-12.21c.69.78,1.34,1.37,1.93,1.74,1.31.86,2.96,1.3,4.89,1.3,2.45,0,4.62-.78,6.47-2.31,2.89-2.41,4.36-6.44,4.36-12,0-4.12-1.02-7.34-3.02-9.58-2.02-2.25-4.51-3.39-7.4-3.39ZM971.67,862.02c0,3.19-.62,5.6-1.86,7.18-1.23,1.57-2.72,2.34-4.56,2.34-2.73,0-4.56-1.2-5.59-3.68-.55-1.31-.83-2.93-.83-4.81,0-2.35.28-4.32.83-5.84,1.02-2.79,2.84-4.15,5.58-4.15s4.56,1.28,5.59,3.93c.55,1.39.83,3.08.83,5.03Z"/>
    <path class="cls-1" d="M1000.34,853.36c-.89-1.38-2.19-2.51-3.87-3.37-1.68-.86-3.43-1.29-5.22-1.29-3.54,0-6.45,1.31-8.65,3.9-2.18,2.57-3.29,5.95-3.29,10.06s1.1,7.47,3.28,9.8c2.18,2.34,4.88,3.53,8.02,3.53,1.27,0,2.43-.13,3.44-.38,1.9-.45,3.52-1.33,4.8-2.62.77-.74,1.47-1.71,2.1-2.87.62-1.17,1-2.25,1.11-3.21l.05-.39h-4.74l-.07.26c-.28,1.06-.77,2.01-1.45,2.8-1.22,1.39-2.82,2.07-4.88,2.07-2.2,0-3.77-.71-4.81-2.17-1-1.41-1.56-3.29-1.68-5.59h17.93v-.35c0-2.54-.13-4.43-.37-5.59-.28-1.73-.85-3.27-1.7-4.57ZM990.99,853.08c2.52,0,4.26.94,5.33,2.87.54.97.9,2.26,1.08,3.86h-12.82c.13-1.9.78-3.49,1.92-4.74,1.22-1.34,2.69-1.99,4.49-1.99Z"/>
    <path class="cls-1" d="M1018.51,848.72c-.2-.02-.34-.02-.42-.02-1.73,0-3.28.64-4.6,1.92-.76.73-1.35,1.39-1.77,1.99v-3.34h-4.64v25.82h4.85v-14.8c0-1.69.54-3.2,1.6-4.5,1.06-1.29,2.55-1.92,4.54-1.92.24,0,.45,0,.65.02.19.02.41.04.64.09l.42.08v-5.2l-.32-.03c-.45-.05-.77-.08-.95-.09Z"/>
    <path class="cls-1" d="M1028.39,842.24h-4.9v7.01h-3.34v4.15h3.34v16.27c0,1.68.37,3.06,1.1,4.13.75,1.11,2.18,1.67,4.23,1.67.61,0,1.18-.03,1.71-.1.53-.06,1.05-.17,1.54-.32l.25-.07v-4.02l-.4.05c-.3.04-.55.07-.77.08-.22,0-.43.02-.63.02-.86,0-1.26-.12-1.45-.22-.46-.23-.68-.71-.68-1.44v-16.04h3.94v-4.15h-3.94v-7.01Z"/>
    <path class="cls-1" d="M1044.88,868.92l-6.27-19.42-.08-.24h-5.45l9.24,26.21c-.22.56-.54,1.37-.99,2.45-.63,1.53-.77,1.82-.79,1.86-.22.34-.5.62-.82.86-.3.21-.8.32-1.48.32-.23,0-.5-.02-.8-.07-.3-.04-.81-.17-1.52-.37l-.45-.13v4.58l.26.07c.47.13.87.22,1.2.27.34.05.79.07,1.4.07,2.5,0,4.3-.76,5.35-2.26,1.01-1.44,2.67-5.3,5.1-11.8,1.02-2.75,2.29-6.3,3.78-10.56,2.03-5.81,3.31-9.41,3.89-11.03l.17-.47h-5.34l-6.4,19.67Z"/>
    <path class="cls-1" d="M1089.53,868.28l-9.39-28.12-.08-.24h-7.17v35.16h5.08v-20.69c0-.81-.02-2.09-.07-3.82-.03-1.07-.05-1.98-.06-2.71l9.13,27.22h5.05l9.04-27.21c0,1.05-.02,2.05-.04,3.02-.03,1.63-.05,2.8-.05,3.5v20.69h5.08v-35.16h-7.13l-9.4,28.36Z"/>
    <path class="cls-1" d="M1133.49,871.48c-.75.08-1.26.01-1.41-.2-.14-.21-.21-.5-.21-.86v-14.47c0-2.5-.96-4.36-2.86-5.55-1.86-1.16-4.3-1.74-7.25-1.74-2.56,0-4.84.63-6.78,1.88-1.99,1.28-3.04,3.55-3.12,6.77v.36s4.54,0,4.54,0l.04-.31c.14-1.23.45-2.17.92-2.77.83-1.1,2.28-1.65,4.32-1.65,1.79,0,3.18.31,4.12.92.9.59,1.34,1.52,1.34,2.85,0,.65-.08,1.14-.24,1.47-.27.58-.81.91-1.64,1.02l-6.61.84c-2.38.3-4.33,1.13-5.81,2.45-1.5,1.34-2.26,3.25-2.26,5.67,0,2.21.77,4.08,2.28,5.56,1.51,1.47,3.48,2.22,5.85,2.22,1.95,0,3.77-.43,5.39-1.28,1.33-.7,2.43-1.51,3.26-2.43.15.69.36,1.26.63,1.69.71,1.14,1.86,1.71,3.41,1.71.61,0,1.07-.02,1.43-.07.35-.05.87-.17,1.52-.36l.25-.07v-3.81l-.42.07c-.25.05-.49.08-.71.1ZM1127.03,862.57v2.79c0,2.47-1.07,4.19-3.26,5.28-1.31.66-2.68.99-4.08.99-1.11,0-2.08-.33-2.89-.98-.79-.64-1.18-1.49-1.18-2.6,0-1.48.57-2.53,1.75-3.2.71-.41,1.81-.72,3.26-.91l2.5-.33c.78-.1,1.59-.26,2.4-.48.57-.16,1.07-.34,1.51-.56Z"/>
    <rect class="cls-1" x="1137.97" y="849.37" width="4.92" height="25.71"/>
    <rect class="cls-1" x="1137.97" y="839.92" width="4.92" height="5.49"/>
    <path class="cls-1" d="M1160.8,848.69c-1.65,0-3.16.34-4.51,1-1.11.55-2.19,1.39-3.2,2.52v-2.95h-4.65v25.82h4.85v-13.51c0-1.61.1-2.86.3-3.71.19-.82.62-1.64,1.27-2.42.81-.97,1.76-1.63,2.83-1.95.59-.19,1.37-.29,2.31-.29,1.8,0,3.01.7,3.69,2.14.42.89.63,2.08.63,3.55v16.18h4.92v-16.47c0-2.58-.35-4.59-1.05-6-1.29-2.61-3.78-3.93-7.41-3.93Z"/>
    <path class="cls-1" d="M1180.4,842.24h-4.9v7.01h-3.34v4.15h3.34v16.27c0,1.68.37,3.06,1.1,4.13.75,1.11,2.18,1.67,4.23,1.67.61,0,1.18-.03,1.71-.1.53-.06,1.05-.17,1.54-.32l.25-.07v-4.02l-.4.05c-.3.04-.55.07-.77.08-.22,0-.43.02-.63.02-.86,0-1.26-.12-1.45-.22-.46-.23-.68-.71-.68-1.44v-16.04h3.94v-4.15h-3.94v-7.01Z"/>
    <path class="cls-1" d="M1207.4,853.36c-.89-1.38-2.19-2.51-3.87-3.37-1.68-.86-3.43-1.29-5.22-1.29-3.54,0-6.45,1.31-8.65,3.9-2.18,2.57-3.29,5.95-3.29,10.06s1.1,7.47,3.28,9.8c2.18,2.34,4.88,3.53,8.02,3.53,1.27,0,2.43-.13,3.44-.38,1.9-.45,3.52-1.33,4.8-2.62.77-.74,1.47-1.71,2.1-2.87.62-1.17,1-2.25,1.11-3.21l.05-.39h-4.74l-.07.26c-.28,1.06-.77,2.01-1.45,2.8-1.22,1.39-2.82,2.07-4.88,2.07-2.2,0-3.77-.71-4.81-2.17-1-1.41-1.56-3.29-1.68-5.59h17.93v-.35c0-2.54-.13-4.43-.37-5.59-.28-1.73-.85-3.27-1.7-4.57ZM1198.05,853.08c2.52,0,4.26.94,5.33,2.87.54.97.9,2.26,1.08,3.86h-12.82c.13-1.9.78-3.49,1.92-4.74,1.22-1.34,2.69-1.99,4.49-1.99Z"/>
    <path class="cls-1" d="M1226.36,848.69c-1.65,0-3.16.34-4.51,1-1.11.55-2.19,1.39-3.2,2.52v-2.95h-4.65v25.82h4.85v-13.51c0-1.61.1-2.86.3-3.71.19-.82.62-1.64,1.27-2.42.81-.97,1.76-1.63,2.83-1.95.59-.19,1.37-.29,2.31-.29,1.8,0,3.01.7,3.69,2.14.42.89.63,2.08.63,3.55v16.18h4.92v-16.47c0-2.58-.35-4.59-1.05-6-1.29-2.61-3.78-3.93-7.41-3.93Z"/>
    <path class="cls-1" d="M1262,871.48c-.75.08-1.26.01-1.41-.2-.14-.21-.21-.5-.21-.86v-14.47c0-2.5-.96-4.36-2.86-5.55-1.86-1.16-4.3-1.74-7.25-1.74-2.56,0-4.84.63-6.78,1.88-1.99,1.28-3.04,3.55-3.12,6.77v.36s4.54,0,4.54,0l.04-.31c.14-1.23.45-2.17.92-2.77.83-1.1,2.28-1.65,4.32-1.65,1.79,0,3.18.31,4.12.92.9.59,1.34,1.52,1.34,2.85,0,.65-.08,1.14-.24,1.47-.27.58-.81.91-1.64,1.02l-6.61.84c-2.38.3-4.33,1.13-5.81,2.45-1.5,1.34-2.26,3.25-2.26,5.67,0,2.21.77,4.08,2.28,5.56,1.51,1.47,3.48,2.22,5.85,2.22,1.95,0,3.77-.43,5.39-1.28,1.33-.7,2.43-1.51,3.26-2.43.15.69.36,1.26.63,1.69.71,1.14,1.86,1.71,3.41,1.71.61,0,1.07-.02,1.43-.07.35-.05.87-.17,1.52-.36l.25-.07v-3.81l-.42.07c-.25.05-.49.08-.71.1ZM1255.53,862.57v2.79c0,2.47-1.07,4.19-3.26,5.28-1.31.66-2.68.99-4.08.99-1.11,0-2.08-.33-2.89-.98-.79-.64-1.18-1.49-1.18-2.6,0-1.48.57-2.53,1.75-3.2.71-.41,1.81-.72,3.26-.91l2.5-.33c.78-.1,1.59-.26,2.4-.48.57-.16,1.07-.34,1.51-.56Z"/>
    <path class="cls-1" d="M1278.82,848.69c-1.65,0-3.16.34-4.51,1-1.11.55-2.19,1.39-3.2,2.52v-2.95h-4.65v25.82h4.85v-13.51c0-1.61.1-2.86.3-3.71.19-.82.62-1.64,1.27-2.42.81-.97,1.76-1.63,2.83-1.95.59-.19,1.37-.29,2.31-.29,1.8,0,3.01.7,3.69,2.14.42.89.63,2.08.63,3.55v16.18h4.92v-16.47c0-2.58-.35-4.59-1.05-6-1.29-2.61-3.78-3.93-7.41-3.93Z"/>
    <path class="cls-1" d="M1308.12,865.77c-.37,1.78-1.04,3.2-1.99,4.21-.95,1-2.2,1.49-3.83,1.49-2.13,0-3.64-.79-4.63-2.41-1.01-1.65-1.51-3.73-1.51-6.16s.36-4.51,1.08-6.16c1.09-2.51,2.83-3.72,5.34-3.72,1.82,0,3.14.47,3.95,1.41.83.97,1.37,2.21,1.6,3.68l.05.3h4.72l-.04-.39c-.36-3.44-1.46-5.92-3.28-7.35-1.8-1.42-4.16-2.14-7-2.14-3.35,0-6.14,1.28-8.31,3.8-2.15,2.51-3.24,6.05-3.24,10.53,0,3.66.99,6.76,2.96,9.22,1.98,2.48,4.67,3.73,7.99,3.73,2.94,0,5.4-.81,7.3-2.39,1.9-1.59,3.11-4.12,3.58-7.53l.06-.4h-4.72l-.06.28Z"/>
    <path class="cls-1" d="M1337.97,863.52c0-2.54-.13-4.43-.37-5.59-.28-1.73-.85-3.27-1.7-4.57-.89-1.38-2.19-2.51-3.87-3.37-1.68-.86-3.43-1.29-5.22-1.29-3.54,0-6.45,1.31-8.65,3.9-2.18,2.57-3.29,5.95-3.29,10.06s1.1,7.47,3.28,9.8c2.18,2.34,4.88,3.53,8.02,3.53,1.27,0,2.43-.13,3.44-.38,1.9-.45,3.52-1.33,4.8-2.62.77-.74,1.47-1.71,2.1-2.87.62-1.17,1-2.25,1.11-3.21l.05-.39h-4.74l-.07.26c-.28,1.06-.77,2.01-1.45,2.8-1.22,1.39-2.82,2.07-4.88,2.07-2.2,0-3.77-.71-4.81-2.17-1-1.41-1.56-3.29-1.68-5.59h17.93v-.35ZM1326.55,853.08c2.52,0,4.26.94,5.33,2.87.54.97.9,2.26,1.08,3.86h-12.82c.13-1.9.78-3.49,1.92-4.74,1.22-1.34,2.69-1.99,4.49-1.99Z"/>
  </g>
  <path class="cls-2" d="M502.87,805.13c277.16-4.12,560.15-4.12,837.23-.47,0,0,27.01.47,27.01.47,0,0-27.01.47-27.01.47-277.06,3.65-560.1,3.66-837.23-.47h0Z"/>
</svg>